<svg width="87" height="43" viewBox="0 0 87 43" fill="none" xmlns="http://www.w3.org/2000/svg">
<path d="M87 3.75918e-06C87 5.64684 85.8748 11.2384 83.6888 16.4554C81.5027 21.6724 78.2985 26.4127 74.2591 30.4056C70.2198 34.3985 65.4244 37.5659 60.1467 39.7268C54.8691 41.8878 49.2125 43 43.5 43C37.7875 43 32.1309 41.8878 26.8533 39.7268C21.5756 37.5659 16.7802 34.3985 12.7409 30.4056C8.7015 26.4127 5.49732 21.6724 3.31124 16.4554C1.12516 11.2384 -4.99403e-07 5.64684 0 0L87 3.75918e-06Z" fill="url(#paint0_linear_972_6721)"/>
<defs>
<linearGradient id="paint0_linear_972_6721" x1="43.5" y1="-5.126e-06" x2="43.5" y2="62.75" gradientUnits="userSpaceOnUse">
<stop stop-color="#FF0066" stop-opacity="0.41"/>
<stop offset="1" stop-color="#FF0066"/>
</linearGradient>
</defs>
</svg>
